<?xml version="1.0" encoding="UTF-8" standalone="no"?>
<svg
   width="255"
   height="230"
   version="1.1"
   id="svg5"
   sodipodi:docname="imagen_2025-08-06_121311742.svg"
   inkscape:version="1.4 (86a8ad7, 2024-10-11)"
   xmlns:inkscape="http://www.inkscape.org/namespaces/inkscape"
   xmlns:sodipodi="http://sodipodi.sourceforge.net/DTD/sodipodi-0.dtd"
   xmlns:xlink="http://www.w3.org/1999/xlink"
   xmlns="http://www.w3.org/2000/svg"
   xmlns:svg="http://www.w3.org/2000/svg">
  <defs
     id="defs5">
    <clipPath
       clipPathUnits="userSpaceOnUse"
       id="clipPath11">
      <use
         x="0"
         y="0"
         xlink:href="#g10"
         id="use11" />
    </clipPath>
    <clipPath
       clipPathUnits="userSpaceOnUse"
       id="clipPath12">
      <path
         style="fill:#d9ffe7;fill-rule:evenodd;stroke:#a66062;stroke-width:1.398;stroke-linecap:round;stroke-miterlimit:4.2;paint-order:fill markers stroke"
         d="M 49.473054,192.72836 C 150.58465,36.313555 150.75122,35.813827 150.75122,35.813827 L 278.51497,150.08492 205.38813,264.68917 40.811105,205.72128 Z"
         id="path12" />
    </clipPath>
  </defs>
  <sodipodi:namedview
     id="namedview5"
     pagecolor="#ffffff"
     bordercolor="#000000"
     borderopacity="0.25"
     inkscape:showpageshadow="2"
     inkscape:pageopacity="0.0"
     inkscape:pagecheckerboard="0"
     inkscape:deskcolor="#d1d1d1"
     inkscape:zoom="6.003268"
     inkscape:cx="159.99619"
     inkscape:cy="139.67392"
     inkscape:window-width="3840"
     inkscape:window-height="2054"
     inkscape:window-x="2869"
     inkscape:window-y="-11"
     inkscape:window-maximized="1"
     inkscape:current-layer="svg5" />
  <g
     id="g11"
     clip-path="url(#clipPath12)"
     transform="translate(-31.1497,-35.147523)">
    <g
       inkscape:label="Clip"
       id="g10">
      <path
         style="fill:#020201;stroke:none"
         d="M 0,0 V 306 H 320 V 0 Z"
         id="path1" />
      <path
         style="fill:#3b7727;stroke:none"
         d="m 151,61 -0.597,1.4884 -0.27,0.3951 -0.484,0.8518 c -0.985,1.4581 -2.02,2.8811 -3.055,4.3041 l -1.464,1.9645 -1.435,1.9961 -2.78,4 -2.21,2.9985 -1.272,1.9768 -0.868,1.8642 -0.409,1.4892 L 136,86 l -1.387,0.6389 -0.314,0.3171 -0.709,0.5648 c -0.63,0.6638 -1.179,1.4003 -1.75,2.1135 l -1.303,1.6558 -2.167,2.7493 L 124.552,99 c -1.321,1.663 -2.721,3.268 -3.954,5 -0.692,0.971 -1.32,1.978 -1.933,3 -0.794,1.324 -1.523,2.688 -2.4,3.961 -1.081,1.569 -2.348,2.992 -3.555,4.463 l -1.292,1.746 -3.092,4.741 -2.58,3.499 -2.301,3.344 -1.839,2.532 -1.9748,2.753 -3.6621,4.961 c -1.1565,1.649 -2.2016,3.372 -3.3889,5 -1.4925,2.046 -3.1574,3.959 -4.6574,6 -1.196,1.627 -2.2955,3.321 -3.4166,5 l -2.6698,3.961 -1.3055,1.869 -3.2377,4.34 c -0.9622,1.273 -1.9659,2.521 -2.8734,3.834 -0.6701,0.969 -1.2788,1.963 -1.8712,2.981 -0.5534,0.952 -1.0592,1.93 -1.6728,2.845 -0.8148,1.216 -1.7772,2.309 -2.6875,3.451 l -0.6389,0.864 -0.9499,1.734 -0.2855,0.977 L 66,184 h -3 v 4 l -1.5116,0.653 -1.0447,0.933 -0.8642,1.402 -0.4213,1.361 L 59,194 l -1.3858,0.639 -0.311,0.317 -0.6936,0.563 -1.0263,1.32 -0.8148,1.445 -0.3063,0.837 -0.1767,0.391 L 54,201 l 1.6713,0.188 1.4892,0.291 c 1.3028,0.316 2.5802,0.698 3.8264,1.195 0.9734,0.389 1.9098,0.852 2.8433,1.326 1.1464,0.582 2.2619,1.215 3.4553,1.7 1.2155,0.494 2.4762,0.826 3.7292,1.205 l 1.9853,0.603 2.9606,1.023 c 0.9273,0.342 1.8462,0.699 2.7539,1.09 l 2.571,1.129 c 0.907,0.38 1.8226,0.741 2.7539,1.058 L 86,212.42 l 0.9861,0.258 1.9244,0.477 1.804,0.54 2.571,0.893 2.7539,0.748 1.9645,0.611 c 1.3501,0.466 2.6641,1.036 3.9961,1.549 l 3,1.148 2.996,1.201 3.834,1.423 c 1.157,0.441 2.283,0.964 3.455,1.363 1.225,0.417 2.483,0.716 3.73,1.055 l 1.986,0.603 3.999,1.44 c 1.335,0.475 2.68,0.919 4,1.437 1.676,0.658 3.306,1.424 5,2.038 l 4,1.311 5,1.743 4,1.258 c 2.359,0.797 4.649,1.777 7,2.595 0.982,0.342 1.988,0.61 2.985,0.903 l 0.976,0.296 1.869,0.706 c 1.152,0.523 2.27,1.132 3.455,1.58 1.51,0.569 3.1,0.869 4.629,1.374 l 1.801,0.665 2.57,1.08 4.549,1.567 3.451,1.353 3.728,1.181 3.827,1.433 1.001,0.293 0.488,0.173 1.671,0.285 -0.098,-1.671 -0.069,-0.488 -0.119,-1.001 -0.559,-3.842 -0.311,-2.998 c -0.121,-1.006 -0.275,-2.005 -0.463,-3 -0.254,-1.347 -0.571,-2.679 -0.936,-4 l -0.851,-3 -0.403,-2 -0.435,-3 -0.465,-2 c -0.282,-0.998 -0.612,-1.987 -0.84,-3 l -0.361,-2 -0.241,-2 -0.582,-3.985 c -0.148,-0.949 -0.272,-1.908 -0.487,-2.845 l -0.486,-1.746 -0.585,-1.709 -0.464,-1.805 c -0.261,-1.289 -0.337,-2.611 -0.527,-3.911 l -0.476,-2.999 -0.362,-2 -0.459,-2 c -0.36,-1.332 -0.775,-2.649 -1.061,-4 -0.279,-1.322 -0.425,-2.666 -0.634,-4 l -0.534,-3 c -0.269,-1.343 -0.582,-2.673 -0.923,-4 l -0.759,-3 c -0.353,-1.653 -0.535,-3.33 -0.785,-5 -0.2,-1.341 -0.455,-2.675 -0.74,-4 -0.434,-2.016 -1.002,-3.997 -1.49,-6 l -0.91,-4 -0.878,-3 -0.487,-2 c -0.207,-0.992 -0.329,-2 -0.491,-3 -0.217,-1.339 -0.463,-2.671 -0.733,-4 l -0.646,-3 c -0.378,-1.663 -0.783,-3.317 -1.065,-5 l -0.415,-3 -0.589,-3.996 c -0.181,-1.275 -0.263,-2.572 -0.526,-3.834 l -0.464,-1.746 c -0.286,-0.863 -0.619,-1.713 -0.85,-2.594 -0.332,-1.262 -0.502,-2.549 -0.712,-3.834 L 164.192,113 c -0.201,-1.004 -0.417,-2.006 -0.667,-3 -0.417,-1.665 -0.9,-3.311 -1.215,-5 -0.247,-1.324 -0.388,-2.667 -0.581,-4 l -0.578,-4 c -0.132,-0.9999 -0.209,-2.0075 -0.396,-3 -0.318,-1.6939 -0.877,-3.3223 -1.318,-4.9853 l -0.642,-2.8449 -0.232,-0.8843 c -0.312,-1.1699 -0.818,-2.2789 -1.112,-3.4553 -0.395,-1.5857 -0.512,-3.2166 -0.736,-4.831 -0.186,-1.3415 -0.445,-2.6754 -0.73,-3.9992 l -0.716,-3 c -0.339,-1.3199 -0.719,-2.629 -0.944,-3.9753 -0.186,-1.11 -0.273,-2.2294 -0.31,-3.3534 L 154,61 h -3 m 19,11 0.019,3.1458 c 0.031,0.9007 0.076,1.8007 0.24,2.6891 l 0.451,1.7407 c 0.284,0.8624 0.619,1.7115 0.839,2.5942 0.314,1.2636 0.438,2.5459 0.602,3.8341 l 0.273,1.9961 0.152,1 0.254,2 0.135,1.9961 c 0.068,1.2805 0.061,2.5681 0.294,3.8341 0.277,1.5022 0.899,2.8966 1.375,4.3398 0.412,1.247 0.703,2.54 0.923,3.834 0.169,0.994 0.278,1.991 0.358,2.996 0.107,1.335 0.12,2.676 0.343,4 l 0.452,2 0.584,2 0.486,2 0.181,1 0.306,2 0.603,4 0.261,2 c 0.194,1.339 0.395,2.679 0.692,4 0.226,1.01 0.468,2.025 0.821,3 l 1.596,4 0.355,1 c 0.339,0.973 0.569,1.992 0.775,3 0.203,0.994 0.34,1.993 0.459,3 l 0.136,2 0.071,2 c 0.061,1.006 0.119,2.005 0.293,3 0.178,1.022 0.45,2.011 0.761,3 0.419,1.338 0.95,2.64 1.302,3.999 l 0.417,1.986 c 0.193,1.25 0.325,2.503 0.642,3.73 0.227,0.876 0.576,1.711 0.854,2.57 l 0.525,1.805 0.211,0.949 c 0.355,1.637 0.591,3.301 0.804,4.961 0.171,1.333 0.245,2.674 0.476,4 0.295,1.693 0.798,3.333 1.204,5 0.403,1.652 0.771,3.32 1.036,5 0.157,0.997 0.273,1.991 0.354,2.996 0.103,1.279 0.108,2.569 0.343,3.834 l 0.452,1.746 c 0.284,0.862 0.619,1.711 0.839,2.594 0.314,1.262 0.442,2.546 0.606,3.834 l 0.309,1.996 c 0.252,1.349 0.599,2.677 0.96,4 0.364,1.331 0.773,2.651 1.065,4 0.358,1.652 0.534,3.33 0.783,5 l 0.649,4 0.528,3 0.681,3 1.294,5 0.564,1.998 0.781,2.957 0.207,0.885 0.289,1.001 0.108,0.488 0.627,1.671 1.141,-1.086 0.328,-0.427 0.691,-0.793 0.623,-0.793 1.442,-1.75 2.178,-2.575 1.252,-1.746 c 0.602,-0.916 1.112,-1.891 1.65,-2.845 l 2.274,-3.985 1.745,-3 1.306,-2 0.741,-1 c 1.029,-1.356 2.171,-2.623 3.174,-4 l 1.352,-1.999 c 0.97,-1.611 1.892,-3.251 2.913,-4.831 l 2.34,-3.441 2.31,-3.458 1.921,-2.555 1.201,-1.781 0.854,-1.789 0.408,-1.475 L 236,194 l 1.39,-0.654 0.325,-0.337 0.729,-0.601 1.246,-1.419 0.61,-0.727 0.799,-0.764 0.369,-0.416 L 243,188 l 0.323,-1.63 0.213,-0.44 0.364,-0.921 0.944,-1.609 1.626,-2.566 c 0.744,-1.223 1.408,-2.5 2.24,-3.668 0.832,-1.169 1.732,-2.282 2.616,-3.412 l 1.259,-1.674 c 1.015,-1.379 2.002,-2.778 2.88,-4.25 l 2.669,-4.74 c 0.722,-1.18 1.516,-2.305 2.325,-3.425 l 1.142,-1.549 0.546,-0.781 0.493,-0.799 0.403,-0.836 0.34,-1.79 -0.469,-1.924 -0.537,-0.985 -0.7,-0.983 -1.736,-1.889 -0.96,-0.87 L 257,145.71 256.004,145 c -0.993,-0.723 -2.009,-1.421 -2.914,-2.255 l -1.805,-1.755 -1.709,-1.771 -1.731,-1.531 c -1.119,-0.879 -2.381,-1.536 -3.563,-2.318 -0.897,-0.592 -1.747,-1.228 -2.564,-1.927 -1.264,-1.082 -2.421,-2.275 -3.563,-3.482 l -0.873,-0.972 -1.706,-1.95 -0.861,-0.949 -1.804,-1.79 c -1.218,-1.127 -2.546,-2.123 -3.822,-3.18 -0.91,-0.755 -1.79,-1.536 -2.665,-2.331 l -2.594,-2.404 -2.845,-2.556 -1.986,-1.868 c -1.662,-1.587 -3.258,-3.247 -4.998,-4.752 l -1.986,-1.614 c -1.249,-0.948 -2.529,-1.853 -3.715,-2.88 -1.124,-0.976 -2.145,-2.053 -3.184,-3.1155 l -2.415,-2.4035 -3.626,-3.3125 c -1.161,-1.0676 -2.306,-2.146 -3.499,-3.1775 l -2.666,-2.1612 -1.925,-1.6737 -1.986,-1.8888 C 187.351,83.3775 185.756,81.7036 184,80.213 l -2,-1.5795 -1,-0.6829 -3,-1.8819 -2.975,-1.9638 -1.865,-1.1188 -1.489,-0.6474 z"
         id="path2" />
      <path
         style="fill:#020201;stroke:none"
         d="m 187,104 0.188,2.159 0.121,1.881 0.094,1.905 0.11,0.904 0.571,1.489 0.5,0.486 1.289,0.255 0.673,-0.255 0.615,-0.486 0.526,-0.675 0.74,-1.722 0.384,-1.946 c 0.1,-0.999 0.158,-1.991 0.17,-2.995 0.013,-1.003 -0.022,-1.999 -0.089,-3 l -0.311,-1.999 -0.671,-1.9825 -1.054,-1.8889 -0.645,-0.8657 -1.451,-1.4954 -1.568,-1.1605 -0.808,-0.4591 -0.823,-0.3758 -1.731,-0.4506 -1.85,0.0494 -0.936,0.25 -1.726,0.9823 -1.271,1.5439 -0.581,1.8712 v 0.9846 l 0.196,0.9922 0.385,0.9846 1.272,1.8713 1.735,1.545 0.941,0.575 1.845,0.71 1.001,0.171 L 187,104 m -47,-10 -0.103,1.6705 -0.083,0.4846 -0.154,0.9907 -0.5,1.7894 c -0.879,2.5398 -2.55,4.6868 -3.685,7.1038 l -0.826,1.965 -0.323,0.997 -0.484,1.994 -0.254,1.946 0.019,0.91 0.51,1.526 1.2,0.871 0.791,0.116 0.843,-0.116 1.635,-0.871 1.343,-1.526 0.552,-0.91 1.456,-2.942 c 0.644,-1.327 1.304,-2.648 1.897,-3.999 l 1.661,-4 0.885,-1.999 0.416,-0.9964 0.342,-0.9853 0.218,-0.9607 0.052,-0.9097 -0.491,-1.5308 -1.235,-0.9252 -0.806,-0.206 -1.735,-0.0093 C 142.08,93.6046 141.055,93.816 140,94 m 97,51 -0.927,2.159 -0.365,1.001 -0.445,1.865 -0.165,1.977 0.135,1.993 0.201,0.986 0.74,1.871 0.544,0.83 1.35,1.289 0.881,0.439 L 241,160 v 4 c 1.653,0.603 3.289,1.273 5.02,1.624 1.973,0.4 3.978,0.358 5.98,0.376 l 0.755,-1.671 0.298,-0.488 0.539,-1.001 0.514,-0.885 c 0.507,-0.965 1.009,-1.909 1.335,-2.955 l 0.415,-1.975 0.086,-0.98 0.053,-1.886 L 256,152 l -1.671,-0.245 -1.489,-0.498 -1.846,-0.995 -0.94,-0.671 -1.733,-1.539 -1.235,-1.397 L 246,145 Z"
         id="path3" />
      <path
         style="fill:#3b7727;stroke:none"
         d="m 247,160 1.389,-0.231 0.972,-0.639 0.44,-0.496 0.676,-1.12 L 251,156 l -1.512,0.338 -0.332,0.228 -1.171,0.877 -0.647,1.045 z"
         id="path4" />
      <path
         style="fill:#020201;stroke:none"
         d="m 82,183 -1.6713,0.927 -1.4892,0.923 -2.8426,1.966 -0.9938,0.636 -1.9583,0.949 -1.8858,0.452 -0.4877,0.085 L 69,189 v 7 l 1.6713,0.432 0.4877,0.09 1.8858,0.301 1.9598,0.152 1.9946,0.115 0.9969,0.098 1.9645,0.365 1.8696,0.621 3.4545,1.521 1.7855,0.541 0.9105,0.137 0.885,0.005 1.5124,-0.496 0.8704,-1.21 0.1157,-0.805 -0.1157,-0.872 -0.8696,-1.721 -1.5031,-1.415 -0.8897,-0.542 -0.8449,-0.418 -1.4707,-0.526 L 84,192 l 1.3395,-1.141 1.0918,-1.023 0.5818,-0.635 0.5772,-0.74 0.8472,-1.647 0.2585,-0.907 0.1551,-0.947 0.0717,-1.964 -0.223,-1.991 -0.5895,-1.96 -0.3935,-0.885 C 87.1764,177.086 86.5801,176.054 86,175 l -3.1559,0.019 -1.8101,0.129 -1.713,0.455 -1.2346,0.996 -0.4521,1.494 0.4274,1.642 1.1003,1.397 0.8272,0.636 L 82,183 m 118,15 h 9 l -0.495,1.671 -0.186,0.488 c -0.315,0.947 -0.64,1.896 -0.879,2.866 -0.324,1.309 -0.504,2.644 -0.707,3.975 l -0.448,2.975 -0.195,1.865 c -0.096,1.046 -0.068,2.114 -0.09,3.16 l 2.066,-0.315 0.905,-0.289 1.481,-0.999 1.236,-1.545 0.852,-1.871 c 0.427,-1.314 0.769,-2.654 1.151,-3.981 l 0.598,-2 0.456,-2 c 0.228,-1.322 0.283,-2.667 0.416,-4 l 0.324,-2.975 0.056,-1.865 -0.151,-1.489 L 215,190 l -4.045,0.005 c -0.986,0.022 -1.974,0.015 -2.957,0.125 -1.37,0.153 -2.711,0.462 -3.978,1.018 l -1.857,0.999 -0.805,0.617 -0.664,0.686 -0.8,1.519 -0.101,0.926 L 200,198 m -44,-3 -0.292,1.656 -0.156,1.41 0.013,0.79 0.383,1.572 0.959,1.215 1.413,0.674 1.614,0.131 0.947,-0.098 2.119,-0.35 -1.025,1.671 -0.345,0.488 -1.165,1.881 -0.496,0.96 -0.656,1.841 -0.166,1 L 159,212 l 1.654,0.06 1.392,0.233 1.529,0.576 1.187,0.802 1.238,1.329 -3.16,0.596 -3.837,0.65 -2.843,0.467 -1.001,0.12 -0.488,0.069 L 153,217 v 6 h 4.045 l 2.957,-0.004 c 1.332,-0.018 2.676,-0.012 3.998,-0.21 1.026,-0.153 2.034,-0.399 2.995,-0.795 l 1.946,-1 0.911,-0.644 0.83,-0.741 1.286,-1.707 0.66,-1.875 0.053,-1.855 -0.159,-0.884 -0.251,-0.861 -0.651,-1.709 -0.335,-0.885 -0.581,-1.869 c -0.246,-0.968 -0.437,-1.962 -0.53,-2.957 L 170.039,203.045 170,199 l -1.522,-1.04 -0.319,-0.319 -1.119,-1.119 L 166,195 Z"
         id="path5" />
    </g>
  </g>
</svg>
